<?xml version="1.0" standalone="no"?>
<!DOCTYPE svg PUBLIC "-//W3C//DTD SVG 20010904//EN"
 "http://www.w3.org/TR/2001/REC-SVG-20010904/DTD/svg10.dtd">
<svg version="1.0" xmlns="http://www.w3.org/2000/svg"
 width="642.000000pt" height="919.000000pt" viewBox="0 0 642.000000 919.000000"
 preserveAspectRatio="xMidYMid meet">
<metadata>
Created by potrace 1.16, written by Peter Selinger 2001-2019
</metadata>
<g transform="translate(0.000000,919.000000) scale(0.100000,-0.100000)"
fill="#000000" stroke="none">
<path d="M1694 7721 c-14 -14 1 -30 33 -36 69 -13 73 -18 73 -99 0 -53 -4 -77
-15 -86 -13 -11 -13 -15 0 -33 20 -29 21 -150 0 -167 -8 -6 -33 -14 -55 -17
-29 -4 -40 -10 -38 -21 4 -23 321 -20 326 3 2 9 -4 15 -16 15 -10 0 -33 5 -51
11 l-31 11 0 79 0 79 45 0 c54 0 88 -20 105 -59 7 -18 21 -31 36 -34 31 -6 34
-1 34 49 0 24 5 46 10 49 6 3 10 15 10 26 0 10 -4 19 -10 19 -5 0 -10 20 -10
45 0 43 -1 45 -29 45 -22 0 -31 -6 -41 -30 -17 -40 -51 -60 -105 -60 l-45 0 0
86 0 85 150 -3 c172 -3 183 -8 205 -95 10 -41 16 -48 36 -48 24 0 24 2 24 93
l0 92 -318 3 c-175 1 -321 0 -323 -2z"/>
<path d="M2492 7722 c-116 -2 -133 -5 -130 -19 2 -10 16 -17 36 -19 65 -7 72
-17 72 -98 0 -53 -4 -77 -15 -86 -13 -11 -13 -15 0 -33 20 -29 21 -150 0 -167
-8 -6 -32 -14 -55 -17 -24 -4 -40 -11 -40 -19 0 -8 3 -14 8 -14 15 -1 308 -1
320 -1 6 1 12 7 12 15 0 8 -16 15 -40 19 -63 8 -70 19 -70 103 l0 74 45 0 c54
0 88 -20 105 -60 10 -24 19 -30 41 -30 27 0 29 3 29 38 0 21 7 47 15 59 13 19
13 23 0 37 -8 8 -15 32 -15 55 0 39 -2 41 -30 41 -23 0 -31 -5 -36 -25 -10
-41 -50 -65 -105 -65 l-49 0 0 85 0 85 143 0 c113 0 147 -3 165 -16 28 -19 44
-49 52 -94 4 -29 10 -35 30 -35 25 0 25 1 25 93 l0 93 -190 2 c-104 1 -250 1
-323 -1z"/>
<path d="M4712 7722 l-83 -3 3 -92 3 -92 28 -3 c24 -3 27 0 27 25 0 38 32 95
61 110 14 8 63 13 117 13 l92 0 0 -83 c0 -52 -5 -88 -12 -95 -10 -10 -10 -17
0 -32 7 -11 12 -53 12 -94 l0 -74 -31 -11 c-18 -6 -41 -11 -51 -11 -12 0 -18
-6 -16 -15 2 -13 29 -15 158 -16 188 -1 180 -2 180 15 0 8 -16 15 -40 19 -23
3 -47 11 -55 17 -21 17 -20 138 0 167 13 18 13 22 0 33 -11 9 -15 34 -15 96
l0 84 89 0 c49 0 101 -4 115 -10 32 -12 58 -51 65 -98 5 -31 10 -37 31 -37 25
0 25 1 25 93 l0 94 -310 1 c-170 1 -347 1 -393 -1z"/>
<path d="M1270 7706 c-95 -21 -159 -66 -190 -134 -12 -26 -27 -57 -33 -70 -9
-19 -5 -34 27 -96 58 -115 136 -156 296 -156 154 0 240 47 295 162 l34 71 -31
61 c-52 105 -104 143 -225 166 -70 12 -102 12 -173 -4z m187 -62 c56 -42 77
-102 51 -144 -10 -15 -10 -22 0 -32 18 -18 14 -69 -8 -106 -63 -103 -204 -102
-265 2 -29 50 -31 73 -8 98 15 17 15 19 -2 38 -36 40 7 128 79 161 51 24 107
18 153 -17z"/>
<path d="M3434 7705 c-98 -21 -177 -86 -199 -165 -4 -14 -13 -32 -21 -40 -11
-13 -8 -26 18 -80 51 -107 114 -151 239 -169 116 -16 233 10 298 65 28 23 61
72 61 89 0 3 -31 5 -68 5 -68 0 -68 0 -85 -34 -8 -19 -31 -45 -49 -59 -87 -65
-197 -29 -242 77 -12 30 -12 37 1 55 12 17 12 27 2 55 -17 46 -4 84 41 127 41
39 90 54 137 43 41 -10 92 -51 110 -90 17 -34 17 -34 85 -34 l68 0 0 75 c0 41
1 78 3 83 1 4 -17 8 -41 10 -38 3 -43 0 -52 -24 -8 -21 -13 -24 -24 -15 -17
15 -140 41 -186 40 -19 0 -63 -7 -96 -14z"/>
<path d="M3857 7713 c-18 -17 -3 -31 39 -36 26 -2 50 -11 55 -18 16 -26 11
-141 -8 -161 -15 -17 -15 -19 0 -36 10 -10 17 -34 17 -53 0 -54 31 -101 86
-129 45 -23 58 -25 194 -25 123 0 151 3 184 19 49 25 76 69 76 125 0 27 6 52
17 63 15 17 15 19 0 36 -12 13 -17 37 -17 84 0 75 9 87 70 95 31 4 40 10 40
25 0 17 -8 18 -137 16 -122 -3 -138 -5 -141 -20 -3 -14 4 -18 30 -18 18 0 44
-7 56 -16 19 -13 22 -24 22 -83 0 -48 -4 -72 -15 -81 -13 -11 -13 -16 1 -42
27 -51 -1 -115 -60 -138 -39 -14 -161 -12 -199 4 -63 26 -98 95 -70 136 13 19
13 25 -2 57 -18 38 -17 125 2 144 6 6 29 13 52 16 31 4 41 10 41 24 0 18 -11
19 -163 19 -90 0 -167 -3 -170 -7z"/>
<path d="M2880 7045 c0 -9 59 -103 78 -126 12 -13 33 -37 47 -54 41 -47 68
-106 68 -150 0 -23 -12 -74 -28 -115 -37 -96 -38 -169 -4 -230 24 -44 62 -77
155 -135 68 -43 89 -75 89 -139 0 -66 -24 -106 -64 -106 -34 0 -41 14 -41 79
0 74 -33 128 -110 178 -84 55 -128 106 -137 157 l-8 41 -6 -55 c-8 -71 7 -193
32 -249 11 -24 17 -47 14 -50 -4 -3 -26 5 -51 18 -42 23 -72 52 -101 97 -18
28 -1 -29 26 -86 21 -47 27 -115 12 -139 -8 -12 -13 -11 -30 10 -28 35 -46
104 -45 179 1 68 13 101 72 195 18 28 37 75 44 106 10 49 9 60 -8 95 -31 63
-95 96 -210 110 l-49 5 40 -19 c80 -38 126 -125 106 -198 -5 -20 -28 -64 -50
-98 -87 -133 -100 -265 -40 -393 13 -27 25 -52 27 -58 3 -5 -7 0 -21 13 -42
39 -78 134 -80 210 -1 37 2 85 6 107 l8 40 -33 -50 c-123 -184 -144 -293 -83
-421 14 -28 42 -68 62 -91 34 -36 44 -41 100 -46 109 -11 219 -61 383 -174 34
-24 69 -43 77 -43 9 0 31 17 50 38 l35 37 -8 -40 c-10 -59 -29 -90 -69 -115
-30 -19 -41 -21 -61 -11 -15 6 -82 11 -165 11 -85 0 -149 4 -162 11 -12 7 -50
38 -84 70 -34 33 -65 59 -70 59 -17 0 4 -262 26 -324 26 -73 89 -182 129 -219
l30 -28 89 65 c49 36 110 75 134 86 52 23 126 26 176 5 47 -20 62 -19 135 6
97 32 169 9 316 -100 98 -73 92 -74 167 39 60 91 84 158 100 280 20 148 25
169 51 222 22 43 24 60 24 200 1 114 4 159 15 178 26 45 18 132 -21 246 -42
121 -44 188 -6 241 34 48 26 51 -19 8 -69 -67 -79 -100 -72 -237 4 -81 3 -118
-5 -118 -6 0 -13 13 -17 29 -10 45 -94 179 -145 230 -57 57 -136 111 -213 145
-134 59 -219 134 -234 207 -9 46 -25 20 -27 -43 -2 -94 49 -146 270 -272 129
-73 230 -194 248 -296 l6 -35 -15 39 c-49 127 -135 205 -326 294 -110 51 -170
96 -195 143 -18 36 -18 125 1 179 38 108 6 152 -190 260 -33 18 -76 48 -95 67
-32 30 -50 40 -50 28z m996 -1281 c22 -10 34 -23 32 -32 -3 -16 -80 -74 -236
-179 -76 -51 -86 -55 -123 -49 -32 5 -46 2 -77 -19 -36 -24 -100 -35 -87 -15
3 6 34 29 67 53 34 23 82 57 107 75 134 96 257 176 279 181 2 1 19 -6 38 -15z
m12 -297 c4 -20 -15 -41 -62 -73 -25 -16 -49 -19 -165 -19 -75 0 -153 -5 -175
-9 -25 -6 -40 -5 -45 2 -3 5 -25 11 -47 13 -35 3 -48 -2 -78 -29 -37 -33 -56
-40 -56 -22 0 6 4 10 10 10 23 0 49 43 43 71 -6 33 -10 31 87 29 89 -2 312 18
385 34 76 17 99 16 103 -7z"/>
<path d="M2400 5631 c-23 -45 -5 -200 41 -338 11 -35 25 -63 30 -63 6 0 8 8 5
18 -38 122 -47 259 -20 287 9 9 24 13 35 10 24 -8 24 -3 -1 45 -29 58 -71 76
-90 41z"/>
<path d="M4046 5608 c-26 -35 -50 -113 -44 -144 2 -15 8 -10 26 19 31 54 56
47 60 -15 4 -68 -24 -216 -52 -270 -27 -52 -19 -65 12 -20 57 79 105 380 72
443 -16 28 -46 23 -74 -13z"/>
<path d="M3092 5050 c-13 -5 -74 -55 -136 -110 -63 -55 -133 -109 -157 -120
-56 -25 -114 -25 -164 0 -21 11 -41 18 -43 15 -3 -2 7 -20 21 -38 34 -45 104
-77 164 -77 114 0 281 65 398 154 33 25 63 46 67 46 5 0 36 -21 70 -46 123
-90 242 -140 365 -150 65 -6 77 -4 125 19 44 22 105 83 94 94 -2 2 -23 -6 -47
-17 -96 -43 -161 -20 -310 113 -123 110 -155 128 -214 119 -56 -7 -123 -7
-170 1 -22 4 -50 2 -63 -3z"/>
<path d="M3914 5000 c3 -19 12 -71 20 -115 18 -94 21 -305 5 -305 -6 0 -20 5
-32 12 -21 11 -21 11 -4 -13 35 -50 58 -102 71 -162 l13 -62 17 55 c10 30 20
98 23 150 7 141 -34 324 -102 445 l-17 30 6 -35z"/>
<path d="M2501 4948 c-61 -137 -91 -319 -72 -438 13 -82 39 -170 50 -170 4 0
11 44 14 98 4 53 11 111 16 129 5 17 7 94 4 170 -3 100 -1 157 10 206 8 37 13
67 10 67 -2 0 -17 -28 -32 -62z"/>
<path d="M3082 4673 c-7 -12 -18 -27 -25 -35 -64 -67 -127 -181 -147 -267 -15
-63 -8 -156 16 -221 20 -54 32 -244 16 -254 -6 -3 -14 4 -17 16 -4 13 -34 77
-66 143 -73 147 -88 215 -70 312 7 38 21 88 32 112 21 49 20 64 -3 29 -60 -95
-81 -217 -54 -310 20 -68 20 -73 2 -55 -26 25 -55 89 -67 145 -10 52 0 134 27
207 13 35 -35 -30 -53 -72 l-16 -38 -13 38 c-7 20 -18 64 -25 97 -6 33 -15 60
-19 60 -4 0 -18 -37 -31 -82 -18 -63 -24 -108 -24 -188 0 -93 3 -111 27 -163
28 -59 86 -147 98 -147 3 0 4 27 2 61 -6 85 8 92 53 24 74 -113 145 -300 145
-387 0 -50 17 -57 29 -11 6 21 11 41 11 45 0 4 10 33 22 65 17 47 23 54 29 38
4 -11 8 -36 9 -55 l2 -35 9 38 c5 20 21 61 35 89 l27 52 26 -74 c15 -41 47
-103 71 -138 85 -120 102 -150 107 -191 3 -23 9 -41 14 -41 14 0 67 113 87
187 25 88 44 133 77 180 23 32 26 34 22 13 -23 -102 -11 -189 33 -241 l19 -24
1 54 c0 29 7 81 16 115 17 66 92 226 106 226 4 0 9 -24 9 -52 2 -66 13 -119
22 -98 3 8 13 38 22 65 9 28 30 70 45 95 16 25 44 70 62 100 l33 55 5 -44 5
-45 28 41 c38 56 57 123 57 206 0 79 -23 135 -92 224 -60 79 -74 85 -41 18 41
-81 57 -154 51 -230 -6 -67 -40 -153 -77 -195 l-23 -25 7 25 c14 48 17 179 6
229 -12 54 -50 145 -59 137 -2 -3 3 -23 12 -46 33 -83 18 -209 -35 -293 l-20
-32 4 61 c7 83 -16 205 -52 278 -43 88 -161 243 -161 212 0 -17 33 -81 68
-133 124 -182 146 -316 76 -454 -29 -59 -73 -120 -60 -84 42 115 22 251 -45
310 l-22 20 8 -20 c32 -80 37 -104 32 -165 -4 -66 -31 -133 -68 -173 -18 -20
-73 -125 -83 -160 -9 -29 -24 -10 -42 50 -19 65 -22 132 -12 258 5 50 6 86 4
80 -14 -34 -71 -240 -80 -288 l-11 -58 -40 53 c-21 29 -54 81 -72 116 -40 77
-45 161 -13 244 11 28 18 53 16 55 -1 2 -12 -7 -23 -20 -30 -33 -53 -101 -53
-160 l-1 -52 -23 28 c-57 70 -73 211 -36 309 11 29 38 78 60 108 81 111 92
129 88 142 -3 9 -9 6 -16 -9z"/>
<path d="M1316 3401 c-4 -6 -1 -13 6 -15 49 -15 47 -11 47 -98 0 -105 -4 -118
-35 -118 -13 0 -24 -5 -24 -11 0 -7 50 -10 161 -7 l161 3 24 28 c30 35 30 42
-2 74 -14 14 -22 28 -16 32 17 11 32 49 26 66 -14 35 -64 48 -205 53 -96 3
-138 1 -143 -7z m244 -36 c25 -23 25 -30 0 -55 -15 -15 -33 -20 -70 -20 l-50
0 0 51 0 52 50 -5 c28 -3 59 -13 70 -23z m6 -116 c19 -16 18 -49 -3 -65 -10
-7 -42 -14 -70 -14 l-53 0 0 51 0 52 56 -6 c30 -3 62 -11 70 -18z"/>
<path d="M1774 3399 c-3 -5 9 -12 26 -15 44 -9 46 -21 13 -62 -16 -20 -33 -49
-36 -64 -9 -37 -55 -88 -78 -88 -10 0 -19 -4 -19 -10 0 -6 32 -10 75 -10 43 0
75 4 75 10 0 6 -9 10 -20 10 -26 0 -35 22 -20 49 9 18 20 21 80 21 60 0 71 -3
80 -21 15 -27 6 -49 -19 -49 -11 0 -23 -4 -26 -10 -4 -6 32 -10 99 -10 101 0
138 11 77 23 -20 4 -37 20 -60 55 -17 27 -31 53 -31 58 0 5 -8 17 -17 26 -10
9 -30 34 -46 56 -27 40 -29 41 -87 41 -33 0 -62 -5 -66 -10z m120 -99 l26 -40
-50 0 c-27 0 -50 3 -50 8 0 9 38 72 44 72 2 0 15 -18 30 -40z"/>
<path d="M2136 3402 c-3 -6 -2 -13 4 -17 5 -3 10 -4 10 0 0 3 9 1 21 -6 18 -9
20 -17 15 -52 -7 -55 -7 -56 0 -95 7 -36 -8 -62 -37 -62 -11 0 -19 -4 -19 -10
0 -6 37 -10 90 -10 53 0 90 4 90 10 0 6 -11 10 -24 10 -27 0 -36 16 -36 66 0
33 1 34 43 34 50 0 77 -22 77 -62 0 -53 20 -58 217 -58 106 0 193 5 212 11 52
18 66 64 30 100 -19 19 -20 22 -4 39 22 25 16 59 -16 83 -24 17 -45 20 -165
21 -84 0 -141 -3 -144 -9 -3 -5 5 -11 17 -13 28 -4 40 -44 25 -84 -6 -16 -6
-30 -1 -34 10 -6 12 -54 3 -78 -4 -11 -19 -16 -49 -16 -44 0 -55 10 -55 49 0
10 -9 26 -20 36 -21 19 -21 19 12 29 62 21 68 84 10 108 -38 15 -297 24 -306
10z m237 -34 c20 -10 22 -41 3 -57 -7 -6 -38 -12 -67 -14 l-54 -2 -3 33 c-5
55 1 62 55 55 26 -3 56 -10 66 -15z m349 6 c10 -3 21 -17 24 -31 10 -37 -18
-55 -81 -51 -49 3 -50 4 -53 36 -5 55 2 63 50 57 24 -3 51 -8 60 -11z m-12
-110 c20 -5 36 -16 43 -32 17 -37 -19 -62 -89 -62 l-54 0 0 43 c0 24 3 47 7
50 8 9 51 9 93 1z"/>
<path d="M2866 3403 c-9 -10 4 -23 24 -23 24 0 28 -15 19 -64 -4 -21 -3 -52 3
-67 12 -34 -4 -69 -32 -69 -11 0 -20 -7 -20 -15 0 -13 26 -15 175 -15 l175 0
0 50 c0 43 -3 50 -20 50 -15 0 -20 -7 -20 -25 0 -34 -27 -45 -114 -45 l-76 0
0 45 c0 38 3 45 20 45 11 0 34 -14 52 -30 39 -38 50 -29 50 40 0 68 -15 84
-45 47 -12 -15 -33 -28 -47 -29 -23 -3 -25 0 -25 41 l0 45 65 3 c75 4 111 -11
120 -47 3 -14 14 -26 24 -28 15 -3 17 3 14 45 l-3 48 -166 2 c-92 1 -169 -1
-173 -4z"/>
<path d="M3232 3397 c3 -6 14 -13 26 -15 27 -4 39 -44 25 -81 -5 -16 -5 -36 1
-52 14 -40 0 -79 -29 -79 -14 0 -25 -4 -25 -10 0 -6 37 -10 90 -10 53 0 90 4
90 10 0 6 -11 10 -24 10 -27 0 -36 16 -36 66 0 33 1 34 43 34 50 0 77 -22 77
-62 0 -43 28 -58 107 -58 41 0 73 4 75 11 2 7 17 7 48 0 154 -36 288 14 252
93 -20 45 -56 59 -169 67 -112 8 -138 18 -112 44 25 25 139 23 184 -4 20 -11
52 -21 71 -21 31 0 34 3 34 29 0 33 -29 47 -57 26 -13 -10 -23 -10 -38 -3 -23
13 -144 16 -196 5 -19 -4 -46 -17 -59 -29 -20 -19 -24 -19 -34 -6 -25 34 -60
42 -204 45 -111 2 -143 0 -140 -10z m200 -17 c29 0 58 -23 58 -45 0 -22 -57
-47 -98 -43 -34 3 -37 6 -40 36 -5 49 4 65 31 58 12 -3 34 -6 49 -6z m178 -82
c23 -17 50 -23 126 -29 79 -6 100 -11 118 -28 65 -66 -119 -86 -194 -21 -13
11 -34 20 -47 20 -20 0 -23 -5 -23 -35 0 -28 -4 -35 -19 -35 -19 0 -31 18 -31
50 0 9 -7 23 -15 30 -21 18 -19 27 10 34 14 4 28 13 31 21 8 19 9 19 44 -7z"/>
<path d="M3983 3396 c2 -6 13 -12 25 -14 24 -4 37 -46 24 -82 -5 -13 -4 -38 2
-61 11 -42 -2 -69 -35 -69 -11 0 -19 -4 -19 -10 0 -6 37 -10 90 -10 50 0 90 4
90 9 0 5 -12 11 -27 13 -26 3 -28 7 -31 51 l-3 47 91 0 91 0 -3 -47 c-3 -44
-5 -48 -30 -51 -16 -2 -28 -8 -28 -13 0 -5 41 -9 90 -9 53 0 90 4 90 10 0 6
-8 10 -19 10 -32 0 -46 27 -35 69 6 23 7 48 1 65 -13 38 -1 74 25 78 12 2 23
8 25 14 3 8 -22 11 -84 10 -85 -1 -115 -14 -63 -26 21 -5 25 -12 25 -45 l0
-40 -85 0 -85 0 -3 38 c-3 34 0 39 27 48 51 18 26 28 -65 28 -59 -1 -84 -5
-81 -13z"/>
<path d="M4541 3399 c-59 -11 -87 -31 -112 -81 l-22 -42 23 -43 c27 -51 85
-83 151 -83 90 0 147 32 175 99 13 31 12 37 -8 74 -36 64 -115 93 -207 76z
m106 -41 c32 -35 30 -132 -2 -164 -14 -14 -36 -24 -52 -24 -52 0 -103 53 -84
87 6 11 6 24 0 35 -10 19 -1 45 27 72 24 24 86 21 111 -6z"/>
<path d="M4775 3400 c-3 -5 0 -12 7 -14 51 -16 50 -15 44 -59 -7 -55 -7 -56 0
-95 7 -36 -8 -62 -37 -62 -11 0 -19 -4 -19 -10 0 -6 37 -10 90 -10 53 0 90 4
90 10 0 6 -11 10 -24 10 -27 0 -36 16 -36 65 l0 33 94 4 c76 2 98 7 115 22 29
26 24 63 -11 89 -23 17 -46 21 -166 24 -93 3 -142 1 -147 -7z m197 -19 c29 -1
58 -24 58 -46 0 -29 -31 -45 -86 -45 l-54 0 0 43 c0 50 5 58 34 52 12 -2 33
-4 48 -4z"/>
<path d="M1169 2749 c-89 -39 -124 -139 -75 -217 19 -31 35 -41 92 -60 133
-44 237 -95 253 -124 14 -25 14 -29 -5 -55 -46 -62 -207 -65 -255 -5 -15 20
-19 36 -15 60 4 30 2 34 -29 49 -35 17 -39 16 -93 -13 -1 -1 5 -29 14 -63 31
-109 103 -155 244 -155 132 0 195 27 234 101 28 55 13 134 -33 171 -26 20
-110 58 -206 92 -106 38 -130 57 -121 94 10 39 50 60 115 61 90 0 140 -31 133
-85 -1 -8 11 -23 27 -32 28 -15 32 -15 63 1 l34 17 -18 48 c-23 65 -62 103
-122 121 -72 22 -181 19 -237 -6z"/>
<path d="M2398 2760 c-82 -25 -148 -88 -174 -166 -9 -27 -23 -62 -31 -78 -9
-20 -11 -32 -3 -40 5 -5 10 -22 10 -36 0 -48 29 -126 65 -173 89 -117 303
-142 417 -47 43 35 76 99 80 155 l3 40 -55 0 -54 0 -8 -42 c-14 -84 -63 -124
-152 -125 -93 -1 -156 53 -177 152 -20 92 0 188 50 241 23 25 84 49 123 49 69
0 148 -68 148 -127 0 -23 3 -24 58 -21 l57 3 -3 40 c-6 74 -76 152 -157 174
-46 12 -157 13 -197 1z"/>
<path d="M3419 2637 c2 -94 0 -132 -10 -143 -10 -12 -10 -17 0 -23 9 -6 12
-46 9 -160 l-3 -151 237 0 238 0 -6 33 c-3 17 -7 38 -10 45 -3 9 -44 12 -174
10 -93 -2 -170 0 -170 5 -1 4 -1 44 -1 90 l-1 82 154 5 153 5 3 37 3 37 -157
3 -158 3 1 80 1 80 163 5 163 5 7 35 c4 19 6 36 5 38 -2 1 -104 3 -227 5
l-224 2 4 -128z"/>
<path d="M4130 2761 c-94 -30 -168 -114 -187 -211 -3 -19 -12 -40 -20 -45 -12
-9 -12 -15 1 -40 9 -17 16 -43 16 -60 0 -41 41 -123 81 -164 55 -55 111 -75
209 -75 65 0 96 5 130 20 83 38 131 104 134 183 l1 46 -50 3 -50 3 -12 -52
c-16 -66 -52 -105 -109 -117 -138 -30 -225 55 -225 220 0 106 35 173 110 204
95 40 191 -8 216 -108 7 -26 11 -28 61 -28 52 0 54 1 54 28 -1 64 -58 144
-128 178 -40 20 -187 30 -232 15z"/>
<path d="M4545 2760 c-2 -3 0 -12 6 -20 12 -21 12 -230 -1 -230 -19 0 -22 -29
-5 -46 14 -15 16 -35 13 -143 -2 -69 -8 -134 -12 -143 -7 -16 -2 -18 55 -18
l64 0 -3 151 c-3 118 -1 154 10 160 11 7 11 12 0 29 -9 15 -13 58 -11 142 l1
120 -57 2 c-31 0 -58 -1 -60 -4z"/>
<path d="M4742 2763 c-4 -2 -6 -57 -4 -124 2 -82 -1 -125 -9 -135 -9 -11 -9
-17 1 -28 8 -11 11 -59 8 -165 l-3 -151 55 0 55 0 -3 215 c-2 124 0 215 5 215
5 0 20 -12 33 -27 28 -33 184 -206 256 -283 28 -30 65 -71 82 -90 l31 -35 1
155 c0 105 4 160 12 168 8 8 8 15 -1 26 -8 10 -12 53 -10 137 l1 123 -52 -1
-52 -1 1 -161 c2 -153 -4 -185 -26 -147 -4 7 -60 69 -123 136 -63 67 -119 132
-124 145 -8 20 -17 24 -68 27 -32 2 -62 2 -66 1z"/>
<path d="M1604 2744 c3 -9 6 -27 6 -40 l0 -24 196 0 195 0 -21 -30 c-11 -16
-52 -61 -90 -101 -38 -39 -70 -77 -72 -84 -2 -7 -46 -63 -98 -125 -52 -61
-105 -124 -117 -138 -13 -15 -23 -30 -23 -34 0 -5 128 -8 284 -8 l285 0 -6 38
c-3 20 -7 38 -7 39 -1 1 -81 3 -178 3 -97 1 -179 4 -182 7 -5 5 15 32 94 128
14 16 46 51 72 76 27 26 48 51 48 57 0 5 32 48 70 95 58 70 70 92 70 121 l0
36 -266 0 c-239 0 -266 -2 -260 -16z"/>
<path d="M2824 2723 c3 -21 5 -39 6 -40 0 -2 86 -3 190 -3 105 0 190 -3 190
-6 0 -19 -143 -174 -160 -174 -5 0 -10 -7 -10 -17 0 -12 -98 -143 -130 -173
-19 -18 -120 -139 -120 -144 0 -3 128 -6 285 -6 l285 0 -3 40 -2 40 -177 0
c-104 0 -179 4 -183 10 -7 12 163 218 187 226 10 3 18 12 18 21 0 8 32 53 70
100 42 51 70 95 70 108 0 13 3 30 6 39 6 14 -21 16 -261 16 l-267 0 6 -37z"/>
</g>
</svg>
