<?xml version="1.0" encoding="UTF-8" standalone="no"?>
<!-- Created with Inkscape (http://www.inkscape.org/) -->

<svg
   width="243.09734"
   height="235.88054"
   viewBox="0 0 243.09734 235.88054"
   version="1.1"
   id="svg1"
   xml:space="preserve"
   inkscape:version="1.4.3 (0d15f75, 2025-12-25)"
   sodipodi:docname="drawing.svg"
   xmlns:inkscape="http://www.inkscape.org/namespaces/inkscape"
   xmlns:sodipodi="http://sodipodi.sourceforge.net/DTD/sodipodi-0.dtd"
   xmlns="http://www.w3.org/2000/svg"
   xmlns:svg="http://www.w3.org/2000/svg"><sodipodi:namedview
     id="namedview1"
     pagecolor="#ffffff"
     bordercolor="#000000"
     borderopacity="0.25"
     inkscape:showpageshadow="2"
     inkscape:pageopacity="0.0"
     inkscape:pagecheckerboard="0"
     inkscape:deskcolor="#d1d1d1"
     inkscape:document-units="px"
     inkscape:zoom="0.75049031"
     inkscape:cx="91.939895"
     inkscape:cy="188.54341"
     inkscape:window-width="1920"
     inkscape:window-height="1096"
     inkscape:window-x="0"
     inkscape:window-y="38"
     inkscape:window-maximized="0"
     inkscape:current-layer="layer1" /><defs
     id="defs1" /><g
     inkscape:label="Layer 1"
     inkscape:groupmode="layer"
     id="layer1"
     transform="translate(-125.74888,-142.66231)"><g
       id="g9"
       transform="translate(1.3324592,6.6623107)"><path
         style="fill:#b9b9b9;fill-opacity:1"
         d="m 129.8083,370.9904 c -1.20544,-0.48555 -2.96481,-2.06272 -3.90971,-3.50482 -3.54687,-5.41321 -2.28167,-6.99724 32.46405,-40.64531 17.79945,-17.23715 33.6166,-31.96294 35.14923,-32.72397 5.20667,-2.58542 10.70143,0.3421 11.65346,6.20877 l 0.61966,3.81852 -15.39264,15.1782 c -38.03313,37.50331 -51.54424,50.50381 -53.57661,51.55184 -2.54049,1.31007 -3.98519,1.33415 -7.00744,0.11677 z M 230.5,366.31136 c -3.00444,-1.14637 -5,-3.68295 -5,-6.35556 0,-1.50383 0.7875,-3.61973 1.75,-4.702 2.73368,-3.07386 33.15418,-31.38565 49.73435,-46.28684 14.74928,-13.2557 32.36954,-29.69345 63.97776,-59.68412 14.66598,-13.91547 16.35382,-15.21997 19.73119,-15.25 4.21274,-0.0375 6.8067,2.65037 6.8067,7.05302 0,2.75809 -14.91977,17.36157 -73.03928,71.49093 -57.67654,53.71682 -59.65377,55.37792 -63.96072,53.73457 z m 67.17431,-18.62581 c -3.94173,-4.19578 -2.95465,-6.42271 7.07569,-15.96331 C 330.70408,307.0354 334.22065,304 336.8668,304 c 3.34901,0 6.6332,3.24706 6.6332,6.55821 0,2.84374 -0.81797,3.73827 -23.13555,25.30116 -15.96512,15.42523 -18.20987,16.5952 -22.69014,11.82618 z m -58.58962,-51.80472 c -7.50413,-1.75997 -16.34933,-6.95325 -22.0856,-12.96714 C 206.91756,272.34427 202.98447,258.90515 205.90326,245 c 3.2499,-15.48256 11.99851,-26.97966 25.33821,-33.29855 C 237.67732,208.65285 238.57292,208.5 250,208.5 c 11.82157,0 12.11328,0.0554 19.61854,3.72435 26.66683,13.03617 33.93133,47.39651 14.65142,69.29965 -10.7346,12.19515 -29.27912,18.08734 -45.18527,14.35683 z m -99.9297,-14.70957 c -3.66712,-4.05212 -2.34755,-6.29262 11.2242,-19.05764 C 159.89394,253.16446 163.92437,250 165.80777,250 c 2.93639,0 5.69223,2.35735 5.69223,4.86913 0,2.45944 -26.17067,28.13087 -28.67794,28.13087 -1.10664,0 -2.75683,-0.82293 -3.66707,-1.82874 z m 7.64777,-50.3295 c -2.75954,-1.38188 -4.51959,-6.1599 -3.36287,-9.12918 1.27126,-3.26328 49.24189,-50.45099 52.57717,-51.71907 5.37121,-2.04213 10.48294,1.66103 10.48294,7.5943 0,3.02111 -10.40723,14.09367 -37.12952,39.50318 -15.06665,14.32648 -17.93184,16.07227 -22.56772,13.75077 z m 157.87155,-23.15621 c -1.26557,-1.34714 -2.17431,-3.60804 -2.17431,-5.40958 0,-2.70935 2.31695,-5.31877 18.58902,-20.93555 10.22397,-9.81223 19.55089,-18.20112 20.7265,-18.64198 5.06093,-1.89787 9.68448,1.56611 9.68448,7.25565 0,3.64057 -0.84532,4.62251 -18.87774,21.92857 C 315.59987,208.21939 313.40565,210 310.29658,210 c -2.31114,0 -4.16484,-0.76309 -5.62227,-2.31445 z M 245.5,189.29056 c -3.38264,-1.24377 -5,-3.66688 -5,-7.49092 0,-3.74216 0.80966,-4.68747 21.25,-24.81023 19.95574,-19.64567 21.4784,-20.92195 25,-20.95462 5.5881,-0.0518 8.40356,3.26222 7.8067,9.18923 -0.1871,1.85798 -41.08041,42.82865 -43.87269,43.95569 -2.02502,0.81736 -3.19454,0.84237 -5.18401,0.11085 z"
         id="path15" /><path
         style="fill:#a3a3a3;fill-opacity:1"
         d="m 129.857,371.02995 c -4.59975,-1.90245 -6.55187,-7.43529 -4.07156,-11.53991 0.66801,-1.10548 15.85703,-16.23636 33.75339,-33.62417 34.55324,-33.57136 36.25982,-34.86588 41.46663,-31.45425 3.30865,2.16791 4.74443,5.17416 4.02833,8.43455 -0.40827,1.85881 -9.11772,11.02502 -27.31658,28.74916 -43.62385,42.48591 -42.57409,41.62096 -47.86021,39.43462 z m 100.65803,-5.00358 c -3.41441,-0.83739 -5.7441,-5.15362 -4.48201,-8.30383 0.98307,-2.45377 20.66042,-21.26085 47.90224,-45.78368 16.47339,-14.82918 43.6591,-40.15583 67.82714,-63.18886 13.18174,-12.56269 15.94105,-14.75 18.60722,-14.75 3.88466,0 7.12828,3.06792 7.13657,6.75 0.007,3.03299 1.48674,1.5314 -41.02463,41.62564 -29.43835,27.76453 -48.35325,45.38918 -64.48156,60.08308 -6.6,6.013 -14.925,13.7125 -18.5,17.10998 -6.7817,6.44495 -8.84761,7.47237 -12.98497,6.45767 z m 67.43952,-18.48092 c -4.25511,-4.2551 -3.39149,-5.88299 9.79545,-18.4641 C 331.68141,306.24938 334.30109,304 336.96042,304 c 3.20059,0 6.53958,3.26222 6.53958,6.38922 0,3.1101 -0.45267,3.60831 -20.94818,23.05525 -18.71626,17.75874 -20.1294,18.56886 -24.59727,14.10098 z M 239,295.58897 C 218.79825,290.57513 205.13817,273.27111 205.26598,252.85608 205.42494,227.46253 224.83451,208 250,208 c 22.42177,0 40.5443,15.42433 44.50923,37.88242 5.36256,30.3745 -24.75123,57.34032 -55.50923,49.70655 z m -99.25,-14.12292 c -4.72554,-3.31723 -3.248,-6.01846 10.49546,-19.18767 9.52102,-9.1232 13.41242,-12.22881 15.34955,-12.25 2.82186,-0.0309 5.90499,2.68897 5.90499,5.20917 0,1.59162 -26.17875,27.02728 -28.33963,27.5352 -0.6382,0.15001 -2.17287,-0.43801 -3.41037,-1.3067 z m 7.75,-50.73589 c -3.39753,-1.75134 -5.27918,-5.86567 -4.10046,-8.96592 0.50611,-1.33118 12.23617,-13.41021 26.06679,-26.84229 23.119,-22.45279 25.45742,-24.4464 29.00163,-24.72512 2.95604,-0.23248 4.3421,0.2196 5.94355,1.93856 3.99479,4.28791 2.87585,7.29995 -6.16151,16.58603 -17.21021,17.68385 -43.46226,42.16682 -45.80756,42.72065 -1.34334,0.31722 -3.56744,-0.003 -4.94244,-0.71191 z m 157.07258,-23.36502 c -2.23064,-2.83579 -2.61007,-5.49814 -1.16593,-8.18088 0.49865,-0.92634 9.05496,-9.49148 19.01401,-19.03363 16.01487,-15.34446 18.50487,-17.36065 21.54707,-17.44688 5.79095,-0.16415 9.14319,4.93468 6.96913,10.6002 -0.30973,0.80713 -8.84691,9.39394 -18.97152,19.08178 C 315.37986,208.25573 313.21473,210 310.10106,210 c -2.54239,0 -4.00375,-0.69648 -5.52848,-2.63486 z M 242.0567,186.77749 c -3.83821,-5.47982 -3.02855,-6.69351 19.66258,-29.47433 C 281.80126,137.14179 283.1391,136 286.68032,136 c 4.60733,0 7.81968,3.05937 7.81968,7.44728 0,2.66448 -2.80906,5.87695 -21.25853,24.31144 C 252.34003,188.64321 251.91266,189 247.79818,189 c -3.19081,0 -4.55452,-0.52789 -5.74148,-2.22251 z"
         id="path14" /><path
         style="fill:#8c8c8c;fill-opacity:1"
         d="m 126.95455,368.54545 c -4.89895,-4.89894 -3.98234,-6.47133 14.29545,-24.52315 40.20043,-39.70344 50.85551,-49.74908 53.4306,-50.37451 6.04659,-1.46858 11.84109,3.87572 10.20503,9.41215 -0.60546,2.04888 -11.4834,13.26296 -34.38563,35.44816 -31.94569,30.94554 -33.6761,32.45213 -37.29545,32.47154 -2.71453,0.0146 -4.49451,-0.67869 -6.25,-2.43419 z m 99.95827,-5.03816 c -2.53452,-3.86816 -1.05971,-6.94237 6.86211,-14.30401 C 237.74229,345.51648 245.04094,338.675 249.99415,334 254.94737,329.325 268.225,317.13447 279.5,306.90992 301.50889,286.95154 311.99069,277.18419 339.68298,250.82911 354.67741,236.55873 357.83228,234 360.43298,234 c 3.82178,0 7.06689,3.09937 7.06741,6.75 2.9e-4,2.11993 -1.69135,4.3538 -7.38341,9.75 -36.06492,34.19036 -62.04465,58.54105 -83.15417,77.94005 -13.72955,12.61702 -28.39863,26.22952 -32.59797,30.25 C 237.42425,365.335 236.35744,366 232.63789,366 c -3.2579,0 -4.42464,-0.508 -5.72507,-2.49271 z m 70.94595,-16.05761 c -4.59484,-4.59484 -4.08711,-5.2355 28.32791,-35.74441 8.88398,-8.36157 11.65157,-9.36702 15.41749,-5.6011 3.91706,3.91706 2.13192,6.97916 -11.85587,20.33674 C 309.21993,346.04439 304.63873,350 302.46323,350 c -1.12978,0 -3.20178,-1.14765 -4.60446,-2.55032 z M 240.60833,295.9184 c -6.99353,-1.37345 -16.63324,-6.39387 -22.10585,-11.51285 -16.43677,-15.37467 -17.42221,-42.54541 -2.22224,-61.27166 9.55174,-11.76767 28.24192,-17.73107 44.10798,-14.07335 22.27814,5.13594 37.56381,27.72851 34.00154,50.25506 -3.94348,24.93722 -28.40624,41.58619 -53.78143,36.6028 z M 139.72251,281.4433 c -4.45272,-3.11881 -3.04286,-5.65232 10.52749,-18.91786 9.92252,-9.69965 13.35474,-12.47048 15.47695,-12.49453 3.4928,-0.0396 6.40321,3.92311 4.91864,6.69704 C 169.40883,259.03887 144.03573,283 142.8254,283 c -0.48421,0 -1.88052,-0.70052 -3.10289,-1.5567 z M 149,231.18539 c -3.46328,-0.67857 -5.49852,-3.29002 -5.5259,-7.09038 -0.0244,-3.392 1.42968,-5.01911 25.75,-28.81343 23.86787,-23.35165 26.04059,-25.22075 29.35159,-25.25 4.3878,-0.0387 7.90763,3.29144 7.96182,7.53287 0.0324,2.53703 -3.45356,6.35222 -25.67787,28.10297 -14.14345,13.84209 -26.64783,25.33447 -27.78751,25.53863 -1.13967,0.20416 -2.97213,0.19486 -4.07213,-0.0207 z m 155.95455,-23.63994 c -1.35,-1.35 -2.45455,-3.6066 -2.45455,-5.01468 0,-2.90351 0.24981,-3.17879 22.12763,-24.38376 C 339.44129,163.78894 340.4619,163 344.22264,163 c 4.72036,0 7.29176,2.33475 7.24556,6.57874 -0.0397,3.64456 0.89384,2.5676 -20.08523,23.17126 -15.36616,15.09118 -17.96538,17.25 -20.76909,17.25 -2.06928,0 -4.07447,-0.86969 -5.65933,-2.45455 z M 242.0567,186.77749 c -0.85618,-1.22237 -1.5567,-3.57324 -1.5567,-5.22413 0,-2.57479 3.02551,-6.02715 21.27586,-24.2775 C 281.48568,137.56604 283.31301,136 286.60155,136 c 4.39873,0 7.89845,3.36534 7.89845,7.59517 0,2.5315 -3.12249,6.07647 -21.30316,24.18555 C 252.33619,188.55924 251.80769,189 247.75355,189 c -3.14469,0 -4.51444,-0.53438 -5.69685,-2.22251 z"
         id="path13" /><path
         style="fill:#767676;fill-opacity:1"
         d="m 128.72896,370.33071 c -2.13436,-0.85876 -4.31817,-6.12707 -3.64748,-8.79933 0.37369,-1.48891 12.31355,-13.79037 29.77122,-30.67287 16.03101,-15.50284 31.1132,-30.13808 33.51596,-32.52275 4.13538,-4.10423 5.95772,-4.85045 10.63134,-4.35334 4.21219,0.44803 7.10639,5.29247 5.57236,9.32726 -0.79038,2.07886 -29.21349,30.63378 -57.21819,57.48354 -9.31242,8.92836 -11.06594,10.19689 -14,10.12783 -1.84479,-0.0434 -3.92614,-0.30907 -4.62521,-0.59034 z m 98.18386,-6.82342 c -0.96223,-1.46855 -1.39327,-3.44906 -1.04909,-4.82037 C 226.47208,356.26306 244.60094,338.70885 272,314.01308 289.44286,298.29119 307.22896,281.70542 337.69675,252.75 354.19534,237.07037 357.9115,234 360.39046,234 c 3.68435,0 7.49376,4.33301 6.67553,7.59309 -0.95507,3.80532 -31.12697,32.54488 -121.49516,115.72749 -8.39458,7.72708 -9.84588,8.67942 -13.22695,8.67942 -2.94452,0 -4.16473,-0.56005 -5.43106,-2.49271 z M 297.7,347.8 c -0.66,-0.66 -1.2,-2.64272 -1.2,-4.40605 0,-2.851 2.00403,-5.12679 18.09615,-20.55 9.95288,-9.53917 18.99004,-17.6807 20.08258,-18.09228 5.34683,-2.01424 10.3842,3.54646 7.65313,8.44821 -0.73252,1.31473 -9.20686,9.90003 -18.83186,19.07844 -15.86108,15.12513 -17.83247,16.68959 -21.05,16.70485 -1.9525,0.009 -4.09,-0.52317 -4.75,-1.18317 z m -56.6057,-51.805 c -7.48023,-1.33229 -17.46419,-6.7357 -23.38569,-12.65654 -14.62988,-14.62826 -16.35538,-37.91068 -4.16278,-56.16923 17.11054,-25.62324 56.34209,-25.38371 73.48865,0.44868 5.81208,8.75627 7.72431,16.0144 7.21409,27.38209 -0.47605,10.60652 -2.29707,15.89243 -8.28533,24.05008 -9.31242,12.68606 -28.37054,19.88342 -44.86894,16.94492 z M 138.53518,280.06574 C 137.96583,279.0019 137.5,277.53291 137.5,276.80131 c 0,-0.73159 5.74376,-7.06117 12.7639,-14.06574 9.6324,-9.61101 13.38612,-12.73557 15.3,-12.73557 3.25523,0 4.9361,1.71606 4.9361,5.03942 0,2.08833 -2.69564,5.17851 -12.91037,14.8 -13.46899,12.68675 -16.78517,14.46651 -19.05445,10.22632 z m 6.52152,-51.28825 c -0.85618,-1.22237 -1.5567,-3.5217 -1.5567,-5.1096 0,-3.21858 -0.25701,-2.94234 32.12317,-34.52689 C 193.64983,171.55729 195.53552,170 198.80059,170 c 5.30847,0 9.03306,5.361 7.14426,10.28312 -0.30533,0.79568 -11.9857,12.53248 -25.95638,26.08178 C 155.43452,230.17828 154.45425,231 150.60032,231 c -2.98634,0 -4.37759,-0.55777 -5.54362,-2.22251 z m 159.89785,-21.23204 c -3.46303,-3.46302 -3.00686,-7.08697 1.43134,-11.37114 0.95398,-0.92087 8.9774,-8.76181 17.82984,-17.42431 14.7433,-14.42697 16.39728,-15.75 19.68981,-15.75 4.3787,0 7.59446,2.87283 7.59446,6.78457 0,2.28409 -3.3808,6.1484 -18.80987,21.5 C 316.05114,207.84002 313.50684,210 310.64468,210 c -2.10198,0 -4.09555,-0.85996 -5.69013,-2.45455 z M 242.5,187 c -1.17291,-1.17291 -2,-3.33333 -2,-5.22414 0,-2.86449 2.37329,-5.59742 21.27586,-24.5 C 281.70832,137.3434 283.28229,136 286.70328,136 c 2.75377,0 4.16113,0.64782 5.72414,2.63486 4.27743,5.43786 3.71431,6.29132 -19.23058,29.14586 -20.03635,19.95746 -21.52299,21.21928 -25,21.21928 -2.36351,0 -4.41818,-0.72134 -5.69684,-2 z"
         id="path12" /><path
         style="fill:#606060;fill-opacity:1"
         d="m 128.38114,369.99329 c -2.56007,-1.49583 -4.1228,-6.22748 -3.01719,-9.13545 0.52484,-1.38045 15.85239,-16.87569 34.06121,-34.43387 29.41076,-28.35985 33.50445,-31.95913 36.66734,-32.23889 5.29417,-0.46828 8.4075,1.97429 8.4075,6.59613 0,3.54417 -1.1629,4.88609 -22.75,26.25209 -43.13486,42.69307 -44.54049,43.97037 -48.35056,43.93629 -1.86969,-0.0167 -4.12793,-0.45606 -5.0183,-0.9763 z m 100.30424,-4.67711 c -1.99433,-0.79785 -3.25448,-5.00423 -2.27274,-7.5864 0.84874,-2.23236 23.99976,-24.22398 53.66474,-50.97723 16.1683,-14.58132 50.84557,-47.10849 66.51044,-62.38659 11.15233,-10.87697 14.18741,-12.18164 18.44167,-7.92738 1.89663,1.89663 2.49873,3.31284 2.09402,4.92533 -0.75933,3.02541 -19.64953,21.4928 -64.62351,63.17706 -45.02286,41.72956 -60.64739,56.10422 -63.82673,58.72097 -3.11778,2.56609 -6.81017,3.32551 -9.98789,2.05424 z M 297.7,347.8 c -0.66,-0.66 -1.2,-2.62213 -1.2,-4.36029 0,-2.79287 2.13133,-5.20396 18.33258,-20.73893 10.34261,-9.91726 19.4732,-17.86491 20.94968,-18.23549 3.51493,-0.88219 8.14144,3.46753 7.23415,6.80136 -0.33429,1.22834 -8.79974,10.21447 -18.81211,19.96917 -16.62643,16.19855 -18.512,17.73704 -21.7543,17.75 -1.9525,0.008 -4.09,-0.52582 -4.75,-1.18582 z M 243,295.86752 c -20.98956,-2.47203 -37.55943,-21.14092 -37.47555,-42.22286 0.13545,-34.04717 34.33976,-55.55507 64.63309,-40.64172 8.50327,4.18615 15.35157,11.21318 19.90308,20.42253 7.11318,14.39255 5.64887,32.29148 -3.67088,44.87089 C 276.69787,291.37805 260.51718,297.9306 243,295.86752 Z M 138.47978,279.96223 c -0.59982,-1.12078 -0.83783,-2.83412 -0.52891,-3.80743 0.30892,-0.97331 6.11147,-7.25631 12.89457,-13.96223 12.63648,-12.49268 15.69397,-14.25987 18.60437,-10.75304 2.5724,3.09954 0.53231,6.20359 -12.07567,18.3734 -13.29428,12.83226 -16.52866,14.56964 -18.89436,10.1493 z M 145.5,229 c -1.13261,-1.13261 -2,-3.33333 -2,-5.07435 0,-3.49032 -1.3139,-2.06204 30.61527,-33.28043 C 192.63349,172.53925 195.62169,170 198.41073,170 c 2.08076,0 4.06737,0.88719 5.74647,2.56629 4.05974,4.05974 2.75262,7.58191 -5.90482,15.91117 -3.98881,3.8376 -15.41046,14.9751 -25.38145,24.75 C 156.1215,229.6475 154.46631,231 151.12093,231 c -2.2876,0 -4.35739,-0.73646 -5.62093,-2 z m 161.40904,-19.97233 c -2.79057,-1.12847 -4.90136,-6.24313 -3.58505,-8.68694 0.54531,-1.0124 9.09372,-9.82823 18.99647,-19.59073 16.59017,-16.35521 18.28689,-17.75 21.59227,-17.75 4.36192,0 7.58727,2.87386 7.58727,6.76042 0,2.24795 -3.29528,6.03394 -17.75,20.39324 -20.54978,20.41413 -21.45623,21.05152 -26.84096,18.87401 z m -64.52161,-22.14024 c -1.66919,-1.66919 -1.98884,-2.87508 -1.52302,-5.74559 0.50219,-3.09464 3.67501,-6.70859 21.41062,-24.38743 C 280.80512,138.28365 283.45342,136 286.3435,136 c 4.09899,0 8.1565,3.81982 8.1565,7.67868 0,2.27268 -3.81731,6.5869 -21.27586,24.04546 C 253.14027,187.808 251.73963,189 248.22414,189 c -2.45696,0 -4.44297,-0.71883 -5.83671,-2.11257 z"
         id="path11" /><path
         style="fill:#494949;fill-opacity:1"
         d="m 128.13486,368.92742 c -2.01254,-1.58306 -2.63486,-2.9614 -2.63486,-5.8358 0,-3.5991 1.01397,-4.74264 23.25,-26.22107 C 195.10249,292.09732 192.96415,294 196.93041,294 c 6.01485,0 9.44517,5.62693 6.63331,10.88094 -0.51496,0.9622 -15.77927,16.23262 -33.9207,33.93426 -35.75673,34.88991 -35.589,34.76823 -41.50816,30.11222 z m 99.93657,-4.49885 c -0.86429,-0.86428 -1.57143,-3.03069 -1.57143,-4.81423 0,-2.92004 1.86621,-4.9832 18.75,-20.72884 10.3125,-9.61733 23.475,-21.7203 29.25,-26.8955 12.53913,-11.23678 30.99097,-28.43568 59.29511,-55.26877 11.47469,-10.87833 21.94921,-20.49043 23.2767,-21.36024 4.82911,-3.16415 11.54292,1.57686 9.57242,6.75965 -0.99282,2.61131 -40.45709,40.66065 -75.70245,72.98824 C 286.50976,319.174 274.35454,330.375 263.93017,340 c -29.10357,26.87183 -28.05279,26 -31.3364,26 -1.623,0 -3.65806,-0.70714 -4.52234,-1.57143 z m 70,-17 c -0.86429,-0.86428 -1.57143,-2.81068 -1.57143,-4.32532 0,-2.26788 3.25984,-5.87309 18.47152,-20.42857 C 331.33731,307.0149 333.82249,305 336.77152,305 c 4.16005,0 5.72848,1.51751 5.72848,5.54248 0,2.76992 -2.18212,5.23589 -18.40575,20.8 C 308.53875,346.26562 305.2204,349 302.66568,349 c -1.66255,0 -3.72997,-0.70714 -4.59425,-1.57143 z m -61.67129,-52.9847 c -32.24459,-9.93185 -41.4556,-50.44052 -16.81383,-73.94478 22.09367,-21.0738 57.91363,-13.92177 71.1854,14.21331 2.99295,6.34481 3.20268,7.50518 3.21505,17.7876 0.0125,10.42728 -0.16321,11.37645 -3.37574,18.23034 -5.48594,11.70419 -16.08932,20.56547 -28.61102,23.91031 -6.43983,1.72023 -19.70722,1.61824 -25.59986,-0.19678 z M 138.61702,279.7873 c -0.45019,-1.21699 -0.62146,-2.96634 -0.38058,-3.88744 0.24087,-0.9211 5.95134,-7.12538 12.68993,-13.78729 12.55356,-12.41072 15.61658,-14.1756 18.52344,-10.67304 2.51237,3.02722 0.46557,6.14288 -12.02889,18.31047 -9.79953,9.54316 -13.17638,12.25 -15.28222,12.25 -1.87648,0 -2.95347,-0.67668 -3.52168,-2.2127 z m 6.77041,-50.89987 c -4.48195,-4.48195 -3.04862,-6.48596 23.53954,-32.91182 26.45783,-26.29633 28.8214,-28.00857 33.98894,-24.62266 3.17181,2.07825 4.17021,5.71237 2.41718,8.79837 -0.73381,1.29177 -12.40581,13.26118 -25.93778,26.59868 -23.06499,22.73352 -24.83158,24.25 -28.24945,24.25 -2.37729,0 -4.38093,-0.73507 -5.75843,-2.11257 z M 307,208.80505 c -2.78339,-1.57836 -3.46702,-2.83113 -3.48469,-6.38585 -0.0132,-2.66521 2.10932,-5.16227 15.73469,-18.51088 8.6625,-8.48654 17.24703,-16.66268 19.07673,-18.1692 3.95994,-3.26049 8.36078,-3.55161 11.17327,-0.73912 4.21537,4.21537 3.0044,6.33252 -12.75,22.29096 -16.00633,16.21363 -23.49835,22.7261 -26.0898,22.67863 -0.91311,-0.0167 -2.5602,-0.54077 -3.6602,-1.16454 z m -64.41882,-22.42897 c -4.07228,-5.17707 -2.85948,-7.05571 18.11827,-28.06544 20.76388,-20.79553 24.05946,-23.30903 28.50963,-21.74399 3.21944,1.13221 5.72338,5.59574 4.91254,8.75708 -0.30701,1.19695 -9.72166,11.32142 -20.92147,22.49883 -18.44411,18.40724 -20.74112,20.37325 -24.37237,20.8603 -3.53213,0.47376 -4.2753,0.19932 -6.2466,-2.30678 z"
         id="path10" /><path
         style="fill:#333333;fill-opacity:1"
         d="m 128.13486,368.92742 c -2.00924,-1.58047 -2.63486,-2.96259 -2.63486,-5.82097 0,-3.32315 0.76576,-4.48102 6.75,-10.20636 3.7125,-3.55188 18.98169,-18.25744 33.93153,-32.67903 C 190.81331,296.45966 193.68012,294 196.74297,294 c 4.44804,0 7.74899,3.09133 7.7832,7.28896 0.0237,2.90221 -3.02996,6.22177 -31.75,34.51519 C 155.29928,353.02143 139.65,367.98225 138,369.05041 c -3.854,2.49497 -6.58015,2.46098 -9.86514,-0.12299 z M 228.75,364.49539 c -1.52825,-1.09273 -2.24969,-2.63313 -2.24903,-4.80209 8.8e-4,-2.87762 2.20047,-5.23008 22.25,-23.79636 12.23697,-11.33169 27.41565,-25.28169 33.73042,-31 6.31476,-5.71832 19.13976,-17.62977 28.5,-26.46989 9.36023,-8.84012 23.52481,-22.20235 31.47684,-29.69385 7.95202,-7.4915 15.53717,-13.89171 16.85589,-14.22268 3.7545,-0.94232 7.18588,1.8658 7.18588,5.88069 0,3.03359 -1.65303,4.91777 -17.75,20.23217 -18.89658,17.97789 -40.92744,38.67899 -63.75,59.90212 -50.28927,46.76495 -51.26941,47.53111 -56.25,43.96989 z m 69.32143,-17.06682 c -3.95622,-3.95621 -2.49095,-6.07376 17.0835,-24.68838 C 331.21459,307.46801 334.2474,305 336.95493,305 c 3.96264,0 5.54507,1.56223 5.54507,5.47429 0,2.68181 -2.35859,5.33727 -18.47457,20.8 C 308.60243,346.07212 305.06292,349 302.59685,349 c -1.62469,0 -3.66114,-0.70714 -4.52542,-1.57143 z m -62.20329,-53.26756 c -12.63739,-4.36778 -20.9275,-11.71346 -26.37466,-23.37001 -8.62433,-18.45544 -1.68479,-43.03834 15.44932,-54.7283 14.64736,-9.99333 35.50427,-9.96917 50.19893,0.0582 26.55334,18.11945 25.12937,57.86669 -2.65636,74.14704 -9.65801,5.65886 -26.36807,7.43546 -36.61723,3.8931 z M 139.7,280.8 c -0.66,-0.66 -1.2,-2.40179 -1.2,-3.87065 0,-2.10669 2.64573,-5.23198 12.52902,-14.8 C 158.10649,255.27765 164.38456,250 165.45759,250 167.82822,250 170.5,252.58087 170.5,254.87083 170.5,257.28805 145.32643,282 142.86407,282 141.78383,282 140.36,281.46 139.7,280.8 Z m 6.55346,-51.18952 c -0.9606,-0.72925 -2.03518,-2.76908 -2.38796,-4.53296 -0.62084,-3.10422 0.14059,-3.99404 23.74655,-27.75039 13.41337,-13.49884 25.85424,-25.17731 27.64637,-25.95217 3.81079,-1.64766 7.88389,-0.91182 9.26796,1.67433 1.42013,2.65353 1.19003,7.6033 -0.42439,9.12928 -0.76891,0.72679 -10.55641,10.34296 -21.75,21.36927 -11.19359,11.02632 -22.26579,21.71382 -24.60487,23.75 -4.51176,3.92752 -8.34936,4.69968 -11.49366,2.31264 z M 305.15499,207.17126 C 304.24474,206.16545 303.5,203.94954 303.5,202.247 c 0,-2.70465 2.27374,-5.2832 18.00727,-20.42126 9.904,-9.52916 19.15187,-17.70836 20.55082,-18.17601 6.13791,-2.05182 11.59899,4.40921 8.16134,9.65573 -0.80154,1.22329 -9.33293,9.75501 -18.95866,18.95936 C 315.49223,207.34309 313.41543,209 310.28472,209 c -2.09628,0 -4.13129,-0.72548 -5.12973,-1.82874 z m -62.27378,-20.69914 c -4.78179,-4.78179 -3.42509,-6.84325 18.93234,-28.76703 11.10255,-10.8872 21.23018,-20.22543 22.50585,-20.75163 1.27567,-0.5262 3.42888,-0.67827 4.78491,-0.33792 3.03207,0.761 5.75232,5.66072 4.82146,8.68444 -0.56807,1.84526 -39.27343,40.69293 -42.77742,42.93471 -2.28405,1.46128 -5.79097,0.7136 -8.26714,-1.76257 z"
         id="path9" /></g></g></svg>
