<?xml version="1.0" encoding="UTF-8" standalone="no"?>
<!-- Created with Inkscape (http://www.inkscape.org/) -->

<svg
   width="243.09734"
   height="235.88054"
   viewBox="0 0 243.09734 235.88054"
   version="1.1"
   id="svg1"
   xml:space="preserve"
   inkscape:version="1.4.2 (ebf0e940, 2025-05-08)"
   sodipodi:docname="drawing.svg"
   xmlns:inkscape="http://www.inkscape.org/namespaces/inkscape"
   xmlns:sodipodi="http://sodipodi.sourceforge.net/DTD/sodipodi-0.dtd"
   xmlns="http://www.w3.org/2000/svg"
   xmlns:svg="http://www.w3.org/2000/svg"><sodipodi:namedview
     id="namedview1"
     pagecolor="#ffffff"
     bordercolor="#000000"
     borderopacity="0.25"
     inkscape:showpageshadow="2"
     inkscape:pageopacity="0.0"
     inkscape:pagecheckerboard="0"
     inkscape:deskcolor="#d1d1d1"
     inkscape:document-units="px"
     inkscape:zoom="2.1052702"
     inkscape:cx="110.43713"
     inkscape:cy="117.08711"
     inkscape:window-width="1728"
     inkscape:window-height="986"
     inkscape:window-x="0"
     inkscape:window-y="38"
     inkscape:window-maximized="0"
     inkscape:current-layer="layer1" /><defs
     id="defs1">
  <style
   id="style1">
    @media (prefers-color-scheme: dark) {
      #path15 { fill: #ffffff !important; }
      #path14 { fill: #f0f0f0 !important; }
      #path13 { fill: #e0e0e0 !important; }
      #path12 { fill: #d0d0d0 !important; }
      #path11 { fill: #c0c0c0 !important; }
      #path10 { fill: #b0b0b0 !important; }
      #path9  { fill: #a0a0a0 !important; }
    }
  </style>
</defs><g
     inkscape:label="Layer 1"
     inkscape:groupmode="layer"
     id="layer1"
     transform="translate(-125.74888,-142.66231)"><g
       id="g9"
       transform="translate(1.3324592,6.6623107)"><path
         style="display:inline;fill:#333333;fill-opacity:1"
         d="m 145.93137,352.08771 c -2.00924,-1.58047 -2.63486,-2.96259 -2.63486,-5.82097 0,-3.32315 0.76576,-4.48102 6.75,-10.20636 3.7125,-3.55188 1.18518,-1.41773 16.13502,-15.83932 C 190.81331,296.45966 193.68012,294 196.74297,294 c 4.44804,0 7.74899,3.09133 7.7832,7.28896 0.0237,2.90221 -3.02996,6.22177 -31.75,34.51519 -17.47689,17.21728 -15.32966,15.33839 -16.97966,16.40655 -3.854,2.49497 -6.58015,2.46098 -9.86514,-0.12299 z M 228.75,364.49539 c -1.52825,-1.09273 -2.24969,-2.63313 -2.24903,-4.80209 8.8e-4,-2.87762 2.20047,-5.23008 22.25,-23.79636 12.23697,-11.33169 27.41565,-25.28169 33.73042,-31 6.31476,-5.71832 19.13976,-17.62977 28.5,-26.46989 9.36023,-8.84012 23.52481,-22.20235 31.47684,-29.69385 7.95202,-7.4915 15.53717,-13.89171 16.85589,-14.22268 3.7545,-0.94232 7.18588,1.8658 7.18588,5.88069 0,3.03359 -1.65303,4.91777 -17.75,20.23217 -18.89658,17.97789 -40.92744,38.67899 -63.75,59.90212 -50.28927,46.76495 -51.26941,47.53111 -56.25,43.96989 z m 69.32143,-17.06682 c -3.95622,-3.95621 -2.49095,-6.07376 17.0835,-24.68838 C 331.21459,307.46801 334.2474,305 336.95493,305 c 3.96264,0 5.54507,1.56223 5.54507,5.47429 0,2.68181 -2.35859,5.33727 -18.47457,20.8 C 308.60243,346.07212 305.06292,349 302.59685,349 c -1.62469,0 -3.66114,-0.70714 -4.52542,-1.57143 z m -62.20329,-53.26756 c -12.63739,-4.36778 -20.9275,-11.71346 -26.37466,-23.37001 -8.62433,-18.45544 -1.68479,-43.03834 15.44932,-54.7283 14.64736,-9.99333 35.50427,-9.96917 50.19893,0.0582 26.55334,18.11945 25.12937,57.86669 -2.65636,74.14704 -9.65801,5.65886 -26.36807,7.43546 -36.61723,3.8931 z M 139.7,280.8 c -0.66,-0.66 -1.2,-2.40179 -1.2,-3.87065 0,-2.10669 2.64573,-5.23198 12.52902,-14.8 C 158.10649,255.27765 164.38456,250 165.45759,250 167.82822,250 170.5,252.58087 170.5,254.87083 170.5,257.28805 145.32643,282 142.86407,282 141.78383,282 140.36,281.46 139.7,280.8 Z m 6.55346,-51.18952 c -0.9606,-0.72925 -2.03518,-2.76908 -2.38796,-4.53296 -0.62084,-3.10422 0.14059,-3.99404 23.74655,-27.75039 13.41337,-13.49884 25.85424,-25.17731 27.64637,-25.95217 3.81079,-1.64766 7.88389,-0.91182 9.26796,1.67433 1.42013,2.65353 1.19003,7.6033 -0.42439,9.12928 -0.76891,0.72679 -10.55641,10.34296 -21.75,21.36927 -11.19359,11.02632 -22.26579,21.71382 -24.60487,23.75 -4.51176,3.92752 -8.34936,4.69968 -11.49366,2.31264 z M 305.15499,207.17126 C 304.24474,206.16545 303.5,203.94954 303.5,202.247 c 0,-2.70465 2.27374,-5.2832 18.00727,-20.42126 9.904,-9.52916 19.15187,-17.70836 20.55082,-18.17601 6.13791,-2.05182 11.59899,4.40921 8.16134,9.65573 -0.80154,1.22329 -9.33293,9.75501 -18.95866,18.95936 C 315.49223,207.34309 313.41543,209 310.28472,209 c -2.09628,0 -4.13129,-0.72548 -5.12973,-1.82874 z m -62.27378,-20.69914 c -4.78179,-4.78179 -3.42509,-6.84325 18.93234,-28.76703 11.10255,-10.8872 18.90031,-18.54792 20.17598,-19.07412 1.27567,-0.5262 3.42888,-0.67827 4.78491,-0.33792 3.03207,0.761 5.75232,5.66072 4.82146,8.68444 -0.56807,1.84526 -36.94356,39.01542 -40.44755,41.2572 -2.28405,1.46128 -5.79097,0.7136 -8.26714,-1.76257 z"
         id="path9"
         sodipodi:nodetypes="ssssscsssssssssssssssssssssssscssssssssssssssssssssssssssssssssss" /></g></g></svg>
