<?xml version="1.0" encoding="UTF-8" standalone="no"?>
<svg
   version="1.0"
   width="174.07784pt"
   height="356.99506pt"
   viewBox="0 0 174.07784 356.99506"
   preserveAspectRatio="xMidYMid"
   id="svg29"
   sodipodi:docname="logo.svg"
   inkscape:version="1.4.3 (0d15f75, 2025-12-25)"
   xmlns:inkscape="http://www.inkscape.org/namespaces/inkscape"
   xmlns:sodipodi="http://sodipodi.sourceforge.net/DTD/sodipodi-0.dtd"
   xmlns="http://www.w3.org/2000/svg"
   xmlns:svg="http://www.w3.org/2000/svg">
  <defs
     id="defs29">
    <style>
      path { fill: #000; }
      @media (prefers-color-scheme: dark) {
        path { fill: #fff; }
      }
    </style>
  </defs>
  <sodipodi:namedview
     id="namedview29"
     pagecolor="#ffffff"
     bordercolor="#000000"
     borderopacity="0.25"
     inkscape:showpageshadow="2"
     inkscape:pageopacity="0.0"
     inkscape:pagecheckerboard="0"
     inkscape:deskcolor="#d1d1d1"
     inkscape:document-units="pt"
     inkscape:zoom="0.58251055"
     inkscape:cx="30.900728"
     inkscape:cy="218.0218"
     inkscape:window-width="1920"
     inkscape:window-height="1099"
     inkscape:window-x="0"
     inkscape:window-y="38"
     inkscape:window-maximized="0"
     inkscape:current-layer="g29" />
  <metadata
     id="metadata1">
Created by potrace 1.16, written by Peter Selinger 2001-2019
</metadata>
  <g
     transform="matrix(0.1,0,0,-0.1,-239.00153,704.99504)"
     stroke="none"
     id="g29">
    <path
       d="m 2880,7045 c 0,-9 59,-103 78,-126 12,-13 33,-37 47,-54 41,-47 68,-106 68,-150 0,-23 -12,-74 -28,-115 -37,-96 -38,-169 -4,-230 24,-44 62,-77 155,-135 68,-43 89,-75 89,-139 0,-66 -24,-106 -64,-106 -34,0 -41,14 -41,79 0,74 -33,128 -110,178 -84,55 -128,106 -137,157 l -8,41 -6,-55 c -8,-71 7,-193 32,-249 11,-24 17,-47 14,-50 -4,-3 -26,5 -51,18 -42,23 -72,52 -101,97 -18,28 -1,-29 26,-86 21,-47 27,-115 12,-139 -8,-12 -13,-11 -30,10 -28,35 -46,104 -45,179 1,68 13,101 72,195 18,28 37,75 44,106 10,49 9,60 -8,95 -31,63 -95,96 -210,110 l -49,5 40,-19 c 80,-38 126,-125 106,-198 -5,-20 -28,-64 -50,-98 -87,-133 -100,-265 -40,-393 13,-27 25,-52 27,-58 3,-5 -7,0 -21,13 -42,39 -78,134 -80,210 -1,37 2,85 6,107 l 8,40 -33,-50 c -123,-184 -144,-293 -83,-421 14,-28 42,-68 62,-91 34,-36 44,-41 100,-46 109,-11 219,-61 383,-174 34,-24 69,-43 77,-43 9,0 31,17 50,38 l 35,37 -8,-40 c -10,-59 -29,-90 -69,-115 -30,-19 -41,-21 -61,-11 -15,6 -82,11 -165,11 -85,0 -149,4 -162,11 -12,7 -50,38 -84,70 -34,33 -65,59 -70,59 -17,0 4,-262 26,-324 26,-73 89,-182 129,-219 l 30,-28 89,65 c 49,36 110,75 134,86 52,23 126,26 176,5 47,-20 62,-19 135,6 97,32 169,9 316,-100 98,-73 92,-74 167,39 60,91 84,158 100,280 20,148 25,169 51,222 22,43 24,60 24,200 1,114 4,159 15,178 26,45 18,132 -21,246 -42,121 -44,188 -6,241 34,48 26,51 -19,8 -69,-67 -79,-100 -72,-237 4,-81 3,-118 -5,-118 -6,0 -13,13 -17,29 -10,45 -94,179 -145,230 -57,57 -136,111 -213,145 -134,59 -219,134 -234,207 -9,46 -25,20 -27,-43 -2,-94 49,-146 270,-272 129,-73 230,-194 248,-296 l 6,-35 -15,39 c -49,127 -135,205 -326,294 -110,51 -170,96 -195,143 -18,36 -18,125 1,179 38,108 6,152 -190,260 -33,18 -76,48 -95,67 -32,30 -50,40 -50,28 z m 996,-1281 c 22,-10 34,-23 32,-32 -3,-16 -80,-74 -236,-179 -76,-51 -86,-55 -123,-49 -32,5 -46,2 -77,-19 -36,-24 -100,-35 -87,-15 3,6 34,29 67,53 34,23 82,57 107,75 134,96 257,176 279,181 2,1 19,-6 38,-15 z m 12,-297 c 4,-20 -15,-41 -62,-73 -25,-16 -49,-19 -165,-19 -75,0 -153,-5 -175,-9 -25,-6 -40,-5 -45,2 -3,5 -25,11 -47,13 -35,3 -48,-2 -78,-29 -37,-33 -56,-40 -56,-22 0,6 4,10 10,10 23,0 49,43 43,71 -6,33 -10,31 87,29 89,-2 312,18 385,34 76,17 99,16 103,-7 z"
       id="path7" />
    <path
       d="m 2400,5631 c -23,-45 -5,-200 41,-338 11,-35 25,-63 30,-63 6,0 8,8 5,18 -38,122 -47,259 -20,287 9,9 24,13 35,10 24,-8 24,-3 -1,45 -29,58 -71,76 -90,41 z"
       id="path8" />
    <path
       d="m 4046,5608 c -26,-35 -50,-113 -44,-144 2,-15 8,-10 26,19 31,54 56,47 60,-15 4,-68 -24,-216 -52,-270 -27,-52 -19,-65 12,-20 57,79 105,380 72,443 -16,28 -46,23 -74,-13 z"
       id="path9" />
    <path
       d="m 3092,5050 c -13,-5 -74,-55 -136,-110 -63,-55 -133,-109 -157,-120 -56,-25 -114,-25 -164,0 -21,11 -41,18 -43,15 -3,-2 7,-20 21,-38 34,-45 104,-77 164,-77 114,0 281,65 398,154 33,25 63,46 67,46 5,0 36,-21 70,-46 123,-90 242,-140 365,-150 65,-6 77,-4 125,19 44,22 105,83 94,94 -2,2 -23,-6 -47,-17 -96,-43 -161,-20 -310,113 -123,110 -155,128 -214,119 -56,-7 -123,-7 -170,1 -22,4 -50,2 -63,-3 z"
       id="path10" />
    <path
       d="m 3914,5000 c 3,-19 12,-71 20,-115 18,-94 21,-305 5,-305 -6,0 -20,5 -32,12 -21,11 -21,11 -4,-13 35,-50 58,-102 71,-162 l 13,-62 17,55 c 10,30 20,98 23,150 7,141 -34,324 -102,445 l -17,30 z"
       id="path11" />
    <path
       d="m 2501,4948 c -61,-137 -91,-319 -72,-438 13,-82 39,-170 50,-170 4,0 11,44 14,98 4,53 11,111 16,129 5,17 7,94 4,170 -3,100 -1,157 10,206 8,37 13,67 10,67 -2,0 -17,-28 -32,-62 z"
       id="path12" />
    <path
       d="m 3082,4673 c -7,-12 -18,-27 -25,-35 -64,-67 -127,-181 -147,-267 -15,-63 -8,-156 16,-221 20,-54 32,-244 16,-254 -6,-3 -14,4 -17,16 -4,13 -34,77 -66,143 -73,147 -88,215 -70,312 7,38 21,88 32,112 21,49 20,64 -3,29 -60,-95 -81,-217 -54,-310 20,-68 20,-73 2,-55 -26,25 -55,89 -67,145 -10,52 0,134 27,207 13,35 -35,-30 -53,-72 l -16,-38 -13,38 c -7,20 -18,64 -25,97 -6,33 -15,60 -19,60 -4,0 -18,-37 -31,-82 -18,-63 -24,-108 -24,-188 0,-93 3,-111 27,-163 28,-59 86,-147 98,-147 3,0 4,27 2,61 -6,85 8,92 53,24 74,-113 145,-300 145,-387 0,-50 17,-57 29,-11 6,21 11,41 11,45 0,4 10,33 22,65 17,47 23,54 29,38 4,-11 8,-36 9,-55 l 2,-35 9,38 c 5,20 21,61 35,89 l 27,52 26,-74 c 15,-41 47,-103 71,-138 85,-120 102,-150 107,-191 3,-23 9,-41 14,-41 14,0 67,113 87,187 25,88 44,133 77,180 23,32 26,34 22,13 -23,-102 -11,-189 33,-241 l 19,-24 1,54 c 0,29 7,81 16,115 17,66 92,226 106,226 4,0 9,-24 9,-52 2,-66 13,-119 22,-98 3,8 13,38 22,65 9,28 30,70 45,95 16,25 44,70 62,100 l 33,55 5,-44 5,-45 28,41 c 38,56 57,123 57,206 0,79 -23,135 -92,224 -60,79 -74,85 -41,18 41,-81 57,-154 51,-230 -6,-67 -40,-153 -77,-195 l -23,-25 7,25 c 14,48 17,179 6,229 -12,54 -50,145 -59,137 -2,-3 3,-23 12,-46 33,-83 18,-209 -35,-293 l -20,-32 4,61 c 7,83 -16,205 -52,278 -43,88 -161,243 -161,212 0,-17 33,-81 68,-133 124,-182 146,-316 76,-454 -29,-59 -73,-120 -60,-84 42,115 22,251 -45,310 l -22,20 8,-20 c 32,-80 37,-104 32,-165 -4,-66 -31,-133 -68,-173 -18,-20 -73,-125 -83,-160 -9,-29 -24,-10 -42,50 -19,65 -22,132 -12,258 5,50 6,86 4,80 -14,-34 -71,-240 -80,-288 l -11,-58 -40,53 c -21,29 -54,81 -72,116 -40,77 -45,161 -13,244 11,28 18,53 16,55 -1,2 -12,-7 -23,-20 -30,-33 -53,-101 -53,-160 l -1,-52 -23,28 c -57,70 -73,211 -36,309 11,29 38,78 60,108 81,111 92,129 88,142 -3,9 -9,6 -16,-9 z"
       id="path13" />
  </g>
</svg>
